<svg xmlns="http://www.w3.org/2000/svg" xmlns:xlink="http://www.w3.org/1999/xlink" width="1024" zoomAndPan="magnify" viewBox="0 0 768 767.999994" height="1024" preserveAspectRatio="xMidYMid meet" version="1.0"><defs><g/><clipPath id="5dce3d0ee0"><rect x="0" width="642" y="0" height="394"/></clipPath><clipPath id="1efc6bb5fa"><path d="M 53 101 L 689 101 L 689 343.050781 L 53 343.050781 Z M 53 101 " clip-rule="nonzero"/></clipPath></defs><g transform="matrix(1, 0, 0, 1, 50, 250)"><g clip-path="url(#5dce3d0ee0)"><g fill="#083a4f" fill-opacity="1"><g transform="translate(0.912143, 307.834735)"><g><path d="M 117.890625 0 L 44.171875 -160.515625 L 44.171875 -33.0625 C 44.171875 -21.332031 45.4375 -14.015625 47.96875 -11.109375 C 51.4375 -7.171875 56.925781 -5.203125 64.4375 -5.203125 L 71.1875 -5.203125 L 71.1875 0 L 4.78125 0 L 4.78125 -5.203125 L 11.53125 -5.203125 C 19.601562 -5.203125 25.328125 -7.640625 28.703125 -12.515625 C 30.765625 -15.515625 31.796875 -22.363281 31.796875 -33.0625 L 31.796875 -157.703125 C 31.796875 -166.148438 30.859375 -172.25 28.984375 -176 C 27.671875 -178.71875 25.253906 -180.988281 21.734375 -182.8125 C 18.210938 -184.644531 12.5625 -185.5625 4.78125 -185.5625 L 4.78125 -190.765625 L 58.8125 -190.765625 L 128.03125 -41.5 L 196.109375 -190.765625 L 250.140625 -190.765625 L 250.140625 -185.5625 L 243.53125 -185.5625 C 235.363281 -185.5625 229.59375 -183.125 226.21875 -178.25 C 224.15625 -175.25 223.125 -168.398438 223.125 -157.703125 L 223.125 -33.0625 C 223.125 -21.332031 224.4375 -14.015625 227.0625 -11.109375 C 230.53125 -7.171875 236.019531 -5.203125 243.53125 -5.203125 L 250.140625 -5.203125 L 250.140625 0 L 169.109375 0 L 169.109375 -5.203125 L 175.859375 -5.203125 C 184.015625 -5.203125 189.734375 -7.640625 193.015625 -12.515625 C 195.078125 -15.515625 196.109375 -22.363281 196.109375 -33.0625 L 196.109375 -160.515625 L 122.53125 0 Z M 117.890625 0 "/></g></g><g transform="translate(257.098523, 307.834735)"><g><path d="M 137.3125 -190.765625 L 203.859375 -190.765625 L 203.859375 -185.5625 L 200.203125 -185.5625 C 197.753906 -185.5625 194.1875 -184.484375 189.5 -182.328125 C 184.8125 -180.171875 180.546875 -177.078125 176.703125 -173.046875 C 172.859375 -169.015625 168.125 -162.445312 162.5 -153.34375 L 116.484375 -80.890625 L 116.484375 -33.0625 C 116.484375 -21.332031 117.796875 -14.015625 120.421875 -11.109375 C 123.984375 -7.171875 129.613281 -5.203125 137.3125 -5.203125 L 143.5 -5.203125 L 143.5 0 L 62.46875 0 L 62.46875 -5.203125 L 69.21875 -5.203125 C 77.28125 -5.203125 83 -7.640625 86.375 -12.515625 C 88.4375 -15.515625 89.46875 -22.363281 89.46875 -33.0625 L 89.46875 -78.21875 L 37.140625 -158.125 C 30.953125 -167.507812 26.753906 -173.375 24.546875 -175.71875 C 22.347656 -178.0625 17.773438 -180.875 10.828125 -184.15625 C 8.953125 -185.09375 6.234375 -185.5625 2.671875 -185.5625 L 2.671875 -190.765625 L 84.265625 -190.765625 L 84.265625 -185.5625 L 80.046875 -185.5625 C 75.640625 -185.5625 71.582031 -184.53125 67.875 -182.46875 C 64.175781 -180.40625 62.328125 -177.3125 62.328125 -173.1875 C 62.328125 -169.8125 65.1875 -163.710938 70.90625 -154.890625 L 110.71875 -93.421875 L 148.140625 -152.21875 C 153.765625 -161.039062 156.578125 -167.609375 156.578125 -171.921875 C 156.578125 -174.546875 155.894531 -176.890625 154.53125 -178.953125 C 153.175781 -181.015625 151.234375 -182.628906 148.703125 -183.796875 C 146.171875 -184.972656 142.375 -185.5625 137.3125 -185.5625 Z M 137.3125 -190.765625 "/></g></g><g transform="translate(465.170822, 307.834735)"><g><path d="M 166.71875 -190.765625 L 168.828125 -146.03125 L 163.484375 -146.03125 C 162.441406 -153.90625 161.03125 -159.535156 159.25 -162.921875 C 156.34375 -168.359375 152.472656 -172.363281 147.640625 -174.9375 C 142.816406 -177.519531 136.46875 -178.8125 128.59375 -178.8125 L 101.71875 -178.8125 L 101.71875 -33.0625 C 101.71875 -21.332031 102.984375 -14.015625 105.515625 -11.109375 C 109.078125 -7.171875 114.5625 -5.203125 121.96875 -5.203125 L 128.59375 -5.203125 L 128.59375 0 L 47.6875 0 L 47.6875 -5.203125 L 54.453125 -5.203125 C 62.515625 -5.203125 68.234375 -7.640625 71.609375 -12.515625 C 73.671875 -15.515625 74.703125 -22.363281 74.703125 -33.0625 L 74.703125 -178.8125 L 51.765625 -178.8125 C 42.859375 -178.8125 36.53125 -178.15625 32.78125 -176.84375 C 27.90625 -175.0625 23.726562 -171.632812 20.25 -166.5625 C 16.78125 -161.5 14.71875 -154.65625 14.0625 -146.03125 L 8.71875 -146.03125 L 10.96875 -190.765625 Z M 166.71875 -190.765625 "/></g></g></g></g></g><path fill="#8bc349" d="M 213.453125 243.5625 L 213.46875 243.625 C 214.171875 246.421875 217.929688 246.972656 219.425781 244.507812 C 220.789062 242.273438 222.179688 240.054688 223.589844 237.855469 C 227.628906 231.5625 231.851562 225.429688 236.214844 219.398438 C 238.394531 216.386719 240.613281 213.40625 242.859375 210.449219 C 245.113281 207.496094 247.398438 204.570312 249.71875 201.671875 C 254.355469 195.878906 259.132812 190.203125 264.046875 184.652344 C 268.960938 179.101562 274.035156 173.695312 279.28125 168.464844 C 284.527344 163.238281 289.957031 158.191406 295.660156 153.46875 C 298.507812 151.109375 301.429688 148.832031 304.4375 146.683594 C 306.117188 145.492188 307.820312 144.335938 309.558594 143.242188 C 309.761719 143.109375 309.960938 143.402344 309.769531 143.546875 C 308.128906 144.773438 306.527344 146.042969 304.957031 147.355469 C 302.140625 149.707031 299.425781 152.179688 296.789062 154.730469 C 291.511719 159.824219 286.539062 165.21875 281.757812 170.769531 C 276.984375 176.328125 272.394531 182.042969 267.972656 187.871094 C 263.550781 193.710938 259.277344 199.652344 255.160156 205.703125 C 253.101562 208.726562 251.078125 211.765625 249.089844 214.832031 C 247.109375 217.902344 245.160156 220.992188 243.253906 224.097656 C 239.4375 230.316406 235.78125 236.628906 232.339844 243.015625 C 230.964844 245.566406 229.625 248.136719 228.328125 250.710938 C 227.113281 253.125 229.210938 255.863281 231.863281 255.351562 C 232.136719 255.300781 232.410156 255.234375 232.6875 255.167969 C 296.042969 239.507812 321.476562 206.84375 337.695312 175.5 C 353.003906 145.910156 360.105469 117.503906 383.125 105.671875 C 384.5 104.972656 384.253906 102.945312 382.753906 102.574219 C 277.910156 76.792969 192.554688 158.515625 213.453125 243.5625 " fill-opacity="1" fill-rule="nonzero"/><g clip-path="url(#1efc6bb5fa)"><path fill="#083a4f" d="M 685.363281 329.835938 L 591.492188 253.917969 C 589.441406 252.265625 588.25 249.769531 588.25 247.128906 L 588.25 132.78125 C 588.25 127.957031 584.339844 124.046875 579.523438 124.046875 L 528.28125 124.046875 C 523.457031 124.046875 519.546875 127.957031 519.546875 132.78125 L 519.546875 177.445312 C 519.546875 184.789062 511.035156 188.855469 505.320312 184.234375 L 403.808594 102.136719 C 402.042969 100.710938 399.4375 101.363281 398.5 103.421875 L 398.484375 103.46875 C 396.472656 107.875 393.160156 111.464844 388.910156 113.828125 C 378.257812 119.769531 372.183594 134.464844 364.5 153.070312 C 364.082031 154.066406 365.085938 155.046875 366.085938 154.632812 C 370.378906 152.867188 375.40625 153.496094 379.167969 156.539062 L 606.539062 340.421875 C 608.84375 342.285156 611.71875 343.300781 614.691406 343.300781 L 680.597656 343.300781 C 687.738281 343.300781 690.910156 334.328125 685.363281 329.835938 Z M 213.039062 262.308594 C 212.984375 262.238281 212.929688 262.167969 212.875 262.105469 C 203.710938 260.550781 196.246094 253.917969 193.660156 244.914062 L 193.617188 244.757812 C 192.207031 239.761719 191.097656 234.695312 190.296875 229.605469 C 189.808594 226.523438 186.164062 225.121094 183.734375 227.085938 L 56.679688 329.835938 C 51.128906 334.328125 54.304688 343.300781 61.445312 343.300781 L 127.355469 343.300781 C 130.320312 343.300781 133.195312 342.285156 135.503906 340.421875 L 223.027344 269.640625 C 219.203125 268.144531 215.753906 265.660156 213.039062 262.308594 Z M 400.523438 247.386719 L 376.621094 247.386719 L 376.621094 271.292969 L 400.523438 271.292969 Z M 365.421875 247.386719 L 341.515625 247.386719 L 341.515625 271.292969 L 365.421875 271.292969 Z M 400.523438 211.316406 L 376.621094 211.316406 L 376.621094 235.222656 L 400.523438 235.222656 Z M 365.421875 235.222656 L 341.515625 235.222656 L 341.515625 211.316406 L 365.421875 211.316406 L 365.421875 235.222656 " fill-opacity="1" fill-rule="nonzero"/></g></svg>